<svg viewBox="0 0 1513 400" xmlns="http://www.w3.org/2000/svg"><g><g><g><g><g><line x1="41.171875" y1="377" x2="36.171875" y2="377" style="visibility: inherit;" fill="rgb(0, 0, 0)" stroke="rgb(204, 204, 204)" stroke-width="1px"></line><line x1="41.171875" y1="348" x2="36.171875" y2="348" style="visibility: inherit;" fill="rgb(0, 0, 0)" stroke="rgb(204, 204, 204)" stroke-width="1px"></line><line x1="41.171875" y1="319.00000000000006" x2="36.171875" y2="319.00000000000006" style="visibility: inherit;" fill="rgb(0, 0, 0)" stroke="rgb(204, 204, 204)" stroke-width="1px"></line><line x1="41.171875" y1="290.00000000000006" x2="36.171875" y2="290.00000000000006" style="visibility: inherit;" fill="rgb(0, 0, 0)" stroke="rgb(204, 204, 204)" stroke-width="1px"></line><line x1="41.171875" y1="261" x2="36.171875" y2="261" style="visibility: inherit;" fill="rgb(0, 0, 0)" stroke="rgb(204, 204, 204)" stroke-width="1px"></line><line x1="41.171875" y1="231.99999999999997" x2="36.171875" y2="231.99999999999997" style="visibility: inherit;" fill="rgb(0, 0, 0)" stroke="rgb(204, 204, 204)" stroke-width="1px"></line><line x1="41.171875" y1="202.99999999999994" x2="36.171875" y2="202.99999999999994" style="visibility: inherit;" fill="rgb(0, 0, 0)" stroke="rgb(204, 204, 204)" stroke-width="1px"></line><line x1="41.171875" y1="174.00000000000006" x2="36.171875" y2="174.00000000000006" style="visibility: inherit;" fill="rgb(0, 0, 0)" stroke="rgb(204, 204, 204)" stroke-width="1px"></line><line x1="41.171875" y1="145.00000000000003" x2="36.171875" y2="145.00000000000003" style="visibility: inherit;" fill="rgb(0, 0, 0)" stroke="rgb(204, 204, 204)" stroke-width="1px"></line><line x1="41.171875" y1="116" x2="36.171875" y2="116" style="visibility: inherit;" fill="rgb(0, 0, 0)" stroke="rgb(204, 204, 204)" stroke-width="1px"></line><line x1="41.171875" y1="86.99999999999994" x2="36.171875" y2="86.99999999999994" style="visibility: inherit;" fill="rgb(0, 0, 0)" stroke="rgb(204, 204, 204)" stroke-width="1px"></line><line x1="41.171875" y1="57.99999999999992" x2="36.171875" y2="57.99999999999992" style="visibility: inherit;" fill="rgb(0, 0, 0)" stroke="rgb(204, 204, 204)" stroke-width="1px"></line><line x1="41.171875" y1="29.00000000000002" x2="36.171875" y2="29.00000000000002" style="visibility: inherit;" fill="rgb(0, 0, 0)" stroke="rgb(204, 204, 204)" stroke-width="1px"></line><line x1="41.171875" y1="0" x2="36.171875" y2="0" style="visibility: inherit;" fill="rgb(0, 0, 0)" stroke="rgb(204, 204, 204)" stroke-width="1px"></line></g><g transform="translate(31.171875, 0)"><text x="0" y="377" dx="0em" dy="0.3em" style="text-anchor: end; visibility: hidden; font-family: Roboto, sans-serif; font-size: 12px; font-weight: 200;" fill="rgb(33, 33, 33)" stroke="none" stroke-width="1px">2.1</text><text x="0" y="348" dx="0em" dy="0.3em" style="text-anchor: end; visibility: inherit; font-family: Roboto, sans-serif; font-size: 12px; font-weight: 200;" fill="rgb(33, 33, 33)" stroke="none" stroke-width="1px">2.2</text><text x="0" y="319.00000000000006" dx="0em" dy="0.3em" style="text-anchor: end; visibility: inherit; font-family: Roboto, sans-serif; font-size: 12px; font-weight: 200;" fill="rgb(33, 33, 33)" stroke="none" stroke-width="1px">2.3</text><text x="0" y="290.00000000000006" dx="0em" dy="0.3em" style="text-anchor: end; visibility: inherit; font-family: Roboto, sans-serif; font-size: 12px; font-weight: 200;" fill="rgb(33, 33, 33)" stroke="none" stroke-width="1px">2.4</text><text x="0" y="261" dx="0em" dy="0.3em" style="text-anchor: end; visibility: inherit; font-family: Roboto, sans-serif; font-size: 12px; font-weight: 200;" fill="rgb(33, 33, 33)" stroke="none" stroke-width="1px">2.5</text><text x="0" y="231.99999999999997" dx="0em" dy="0.3em" style="text-anchor: end; visibility: inherit; font-family: Roboto, sans-serif; font-size: 12px; font-weight: 200;" fill="rgb(33, 33, 33)" stroke="none" stroke-width="1px">2.6</text><text x="0" y="202.99999999999994" dx="0em" dy="0.3em" style="text-anchor: end; visibility: inherit; font-family: Roboto, sans-serif; font-size: 12px; font-weight: 200;" fill="rgb(33, 33, 33)" stroke="none" stroke-width="1px">2.7</text><text x="0" y="174.00000000000006" dx="0em" dy="0.3em" style="text-anchor: end; visibility: inherit; font-family: Roboto, sans-serif; font-size: 12px; font-weight: 200;" fill="rgb(33, 33, 33)" stroke="none" stroke-width="1px">2.8</text><text x="0" y="145.00000000000003" dx="0em" dy="0.3em" style="text-anchor: end; visibility: inherit; font-family: Roboto, sans-serif; font-size: 12px; font-weight: 200;" fill="rgb(33, 33, 33)" stroke="none" stroke-width="1px">2.9</text><text x="0" y="116" dx="0em" dy="0.3em" style="text-anchor: end; visibility: inherit; font-family: Roboto, sans-serif; font-size: 12px; font-weight: 200;" fill="rgb(33, 33, 33)" stroke="none" stroke-width="1px">3</text><text x="0" y="86.99999999999994" dx="0em" dy="0.3em" style="text-anchor: end; visibility: inherit; font-family: Roboto, sans-serif; font-size: 12px; font-weight: 200;" fill="rgb(33, 33, 33)" stroke="none" stroke-width="1px">3.1</text><text x="0" y="57.99999999999992" dx="0em" dy="0.3em" style="text-anchor: end; visibility: inherit; font-family: Roboto, sans-serif; font-size: 12px; font-weight: 200;" fill="rgb(33, 33, 33)" stroke="none" stroke-width="1px">3.2</text><text x="0" y="29.00000000000002" dx="0em" dy="0.3em" style="text-anchor: end; visibility: inherit; font-family: Roboto, sans-serif; font-size: 12px; font-weight: 200;" fill="rgb(33, 33, 33)" stroke="none" stroke-width="1px">3.3</text><text x="0" y="0" dx="0em" dy="0.3em" style="text-anchor: end; visibility: hidden; font-family: Roboto, sans-serif; font-size: 12px; font-weight: 200;" fill="rgb(33, 33, 33)" stroke="none" stroke-width="1px">3.4</text></g><line x1="41.171875" y1="0" x2="41.171875" y2="377" fill="rgb(0, 0, 0)" stroke="rgb(204, 204, 204)" stroke-width="1px"></line></g></g><g transform="translate(41, 0)" clip-path="url(#clip_0)"><clipPath id="clip_0"><rect width="1471" height="377"></rect></clipPath><g><g><g><line x1="0" y1="0" x2="0" y2="377" fill="rgb(0, 0, 0)" stroke="rgb(66, 66, 66)" stroke-width="1px" opacity="0.25"></line><line x1="183.978515625" y1="0" x2="183.978515625" y2="377" fill="rgb(0, 0, 0)" stroke="rgb(66, 66, 66)" stroke-width="1px" opacity="0.25"></line><line x1="367.95703125" y1="0" x2="367.95703125" y2="377" fill="rgb(0, 0, 0)" stroke="rgb(66, 66, 66)" stroke-width="1px" opacity="0.25"></line><line x1="551.935546875" y1="0" x2="551.935546875" y2="377" fill="rgb(0, 0, 0)" stroke="rgb(66, 66, 66)" stroke-width="1px" opacity="0.25"></line><line x1="735.9140625" y1="0" x2="735.9140625" y2="377" fill="rgb(0, 0, 0)" stroke="rgb(66, 66, 66)" stroke-width="1px" opacity="0.25"></line><line x1="919.892578125" y1="0" x2="919.892578125" y2="377" fill="rgb(0, 0, 0)" stroke="rgb(66, 66, 66)" stroke-width="1px" opacity="0.25"></line><line x1="1103.87109375" y1="0" x2="1103.87109375" y2="377" fill="rgb(0, 0, 0)" stroke="rgb(66, 66, 66)" stroke-width="1px" opacity="0.25"></line><line x1="1287.849609375" y1="0" x2="1287.849609375" y2="377" fill="rgb(0, 0, 0)" stroke="rgb(66, 66, 66)" stroke-width="1px" opacity="0.25"></line><line x1="1471.828125" y1="0" x2="1471.828125" y2="377" fill="rgb(0, 0, 0)" stroke="rgb(66, 66, 66)" stroke-width="1px" opacity="0.25"></line></g><g><line x1="0" y1="377" x2="1471.828125" y2="377" fill="rgb(0, 0, 0)" stroke="rgb(66, 66, 66)" stroke-width="1px" opacity="0.25"></line><line x1="0" y1="348" x2="1471.828125" y2="348" fill="rgb(0, 0, 0)" stroke="rgb(66, 66, 66)" stroke-width="1px" opacity="0.25"></line><line x1="0" y1="319.00000000000006" x2="1471.828125" y2="319.00000000000006" fill="rgb(0, 0, 0)" stroke="rgb(66, 66, 66)" stroke-width="1px" opacity="0.25"></line><line x1="0" y1="290.00000000000006" x2="1471.828125" y2="290.00000000000006" fill="rgb(0, 0, 0)" stroke="rgb(66, 66, 66)" stroke-width="1px" opacity="0.25"></line><line x1="0" y1="261" x2="1471.828125" y2="261" fill="rgb(0, 0, 0)" stroke="rgb(66, 66, 66)" stroke-width="1px" opacity="0.25"></line><line x1="0" y1="231.99999999999997" x2="1471.828125" y2="231.99999999999997" fill="rgb(0, 0, 0)" stroke="rgb(66, 66, 66)" stroke-width="1px" opacity="0.25"></line><line x1="0" y1="202.99999999999994" x2="1471.828125" y2="202.99999999999994" fill="rgb(0, 0, 0)" stroke="rgb(66, 66, 66)" stroke-width="1px" opacity="0.25"></line><line x1="0" y1="174.00000000000006" x2="1471.828125" y2="174.00000000000006" fill="rgb(0, 0, 0)" stroke="rgb(66, 66, 66)" stroke-width="1px" opacity="0.25"></line><line x1="0" y1="145.00000000000003" x2="1471.828125" y2="145.00000000000003" fill="rgb(0, 0, 0)" stroke="rgb(66, 66, 66)" stroke-width="1px" opacity="0.25"></line><line x1="0" y1="116" x2="1471.828125" y2="116" fill="rgb(0, 0, 0)" stroke="rgb(66, 66, 66)" stroke-width="1px" opacity="0.25"></line><line x1="0" y1="86.99999999999994" x2="1471.828125" y2="86.99999999999994" fill="rgb(0, 0, 0)" stroke="rgb(66, 66, 66)" stroke-width="1px" opacity="0.25"></line><line x1="0" y1="57.99999999999992" x2="1471.828125" y2="57.99999999999992" fill="rgb(0, 0, 0)" stroke="rgb(66, 66, 66)" stroke-width="1px" opacity="0.25"></line><line x1="0" y1="29.00000000000002" x2="1471.828125" y2="29.00000000000002" fill="rgb(0, 0, 0)" stroke="rgb(66, 66, 66)" stroke-width="1px" opacity="0.25"></line><line x1="0" y1="0" x2="1471.828125" y2="0" fill="rgb(0, 0, 0)" stroke="rgb(66, 66, 66)" stroke-width="1px" opacity="0.25"></line></g></g></g><g><g><line x1="0" y1="986.0000000000002" x2="1471.828125" y2="986.0000000000002" fill="rgb(0, 0, 0)" stroke="rgb(153, 153, 153)" stroke-width="1.5px"></line></g></g><g><g><line x1="183.978515625" y1="0" x2="183.978515625" y2="377" fill="rgb(0, 0, 0)" stroke="rgb(153, 153, 153)" stroke-width="1.5px"></line></g></g><g><g><g><g><g><path stroke="rgb(255, 112, 67)" stroke-width="2px" d="M212.34800273437497,-4.288048311804264L212.863142578125,8.320234561874292L212.936733984375,-24.379421878710357L219.74393906249998,-19.529147761559816L219.96471328125,28.18736212646052L220.95819726562502,-22.408802543476398L221.28935859375002,-28.876331584872165L223.09234804687497,2.4357761059668386L223.20273515625001,0.546303923648233L224.19621914062498,-10.937066229327923L224.60097187500003,11.471093102229478L226.698326953125,-15.005155124303451L230.377897265625,-22.407038817315787L232.40166093750003,21.50138037924561L232.512048046875,62.69874450328275L233.027187890625,45.138605697762486L233.17437070312502,41.970604471272004L234.94056445312498,61.74918391898572L235.198134375,65.50487197734564L236.00763984374998,37.14207059789522L236.44918828124997,31.432045611981675L236.81714531249997,75.28888566953154L237.92101640624998,74.10914758673412L238.32576914062503,54.47431780810707L238.840908984375,51.13448298928911L240.018371484375,61.14448196171609L241.085446875,59.68548766016413L241.67417812500003,49.806441501972294L242.262909375,25.470166303811993L242.41009218750003,27.78818659886646L243.035619140625,46.749029899164675L244.32346875000002,9.418692243359791L246.20004960937501,2.97229320419934L246.86237226562503,47.64844957298588L247.19353359374998,44.849208192559786L247.7086734375,48.51512757764891L247.78226484375,62.1816358160308L247.89265195312498,49.289474228587295L249.51166289062502,65.26936804233318L251.16746953125,67.17940157144432L251.8297921875,30.01020273312514L252.160953515625,74.5464703278968L252.63929765625,66.60082014586678L252.74968476562498,69.37259916556948L253.044050390625,78.68537594920925L254.515878515625,64.99928010526561L255.14140546875,12.860291545705289L255.619749609375,50.648123773493516L257.606717578125,75.42061354346986L258.8945671875,56.89001024577969L260.403191015625,62.939007465114045L261.102309375,89.15300902926417L264.450718359375,57.37297134202464L264.892266796875,68.55999913117157L265.333815234375,46.445343803867026L266.069729296875,53.71784750198546L266.2537078125,81.45651062118618L266.290503515625,53.466193953094866L267.026417578125,57.551854272155936L267.21039609375,58.406109402313305L268.866202734375,68.12649634963994L269.307751171875,97.35757710281372L270.59560078125,120.24042237670906L271.883450390625,72.81956893638612L271.92024609375,103.58218470432288L271.9938375,102.5091559450722L273.6128484375,130.429854013567L274.238375390625,136.40388875109198L274.311966796875,93.28573467782256L274.4959453125,32.35755134846333L275.415837890625,26.51277197016063L275.45263359375,32.81380886143832L275.820590625,60.2256254867036L275.89418203125,73.92368625180517L276.078160546875,74.93618094214092L277.1452359375,82.88580983523671L277.697171484375,71.12490865411431L277.917945703125,70.2450052341921L282.774978515625,64.57564835951241L284.7987421875,106.16455366812907L285.31388203125,123.53152943950276L286.601731640625,120.99440718343553L290.538871875,80.91716528262047L293.151366796875,72.72149610681011L294.770377734375,135.71307134709096L295.76386171875,157.3430397514568L295.874248828125,140.1735311748617L298.008399609375,122.35432225475878L300.289733203125,136.25072804098411L301.5775828125,132.38255591693067L302.82863671875,111.32323596627789L303.3437765625,146.74158905819695L303.41736796875,145.93411421217348L303.454163671875,121.78587591368867L305.588314453125,143.4974539862023L308.200809375,156.18320813705256L309.378271875,165.50953610206508L310.18777734375,158.53855530155136L310.886895703125,123.00209053224548L312.0275625,123.75044039818754L316.443046875,134.54920067356585L317.10536953125,97.2091084220338L317.1789609375,135.84019497525327L319.01874609375,109.10501565283353L321.07930546875,123.11796874675055L321.631241015625,86.30087051229131L323.544617578125,118.66830472864929L324.31732734375,114.92146363217749L324.501305859375,95.4539452312346L324.574897265625,133.51323703517303L326.1571125,136.56945921773607L328.5120375,109.7866956084713L329.5423171875,161.0194183036558L330.572596875,125.72840503081038L332.4859734375,139.23797322921132L334.76730703125,126.51407266463917L335.172059765625,122.3886734287246L337.85814609375,154.76605969867634L338.3732859375,123.44134417276345L338.59406015625,151.18238897671674L339.513952734375,148.12910471136558L339.69793125,153.20968275157213L340.838598046875,155.07269730611443L342.347221875,146.08407480738458L342.825566015625,141.10231677304648L342.899157421875,156.4431745589323L345.879609375,130.42276821437216L347.093867578125,91.53774886281654L349.2648140625,111.2525308378108L349.890341015625,104.15441383160984L350.66305078125,109.60293156523424L354.2690296875,128.06300977179865L355.593675,165.10779954646756L355.7408578125,187.40725017415846L356.0352234375,149.53725254946633L358.75810546875,141.76817304101428L360.1563421875,125.72280398113946L360.597890625,131.0416416679989L360.67148203125,135.42551586802657L362.06971875,148.4147103914412L362.5112671875,171.81472271128453L364.05668671875,146.91629084668537L366.55879453125,166.64357547323894L366.889955859375,178.64095558902113L367.00034296875,203.19110972772287L369.79681640624995,142.2238157147678L369.87040781250005,191.59397758814256L371.85737578124997,172.30776316807948L372.88765546875004,147.24318793856244L375.316171875,127.59082390588095L376.751204296875,149.9512370910325L380.06281757812496,188.21405619810412L380.651548828125,196.92205581282778L381.166688671875,160.41684870528778L383.4112265625,134.3932371368388L384.22073203125,169.17662574005024L386.90681835937505,182.968957668304L386.98040976562504,175.09963453102088L388.157872265625,190.2969827070235L389.556108984375,168.5078358359337L392.24219531250003,152.5771765563488L392.389378125,168.31379126775266L392.94131367187504,139.09970545405145L394.44993750000003,133.84514152821893L394.560324609375,140.94549971728026L397.687959375,155.31447377755492L398.313486328125,149.8260358122699L398.4238734375,186.77685562509865L399.67492734375,187.73826797673388L399.74851875,234.49260858629785L400.006088671875,166.99808241891185L401.330733984375,199.24689639591833L402.10344375,187.04749924433057L402.986540625,169.32928183919103L403.391293359375,172.40449525538043L404.38477734375,189.7973630508928L405.12069140625,176.47236860201502L405.30466992187496,210.48599189721418L409.20501445312505,188.2647456834857L409.572971484375,201.74204467287385L411.41275664062505,199.63495241875802L412.11187500000005,216.5607945286997L412.590219140625,195.04235037981312L412.81099335937495,181.792378946239L413.2893375,223.0419619302423L415.386692578125,204.3828293194608L416.23299375,199.66098338913102L416.41697226562496,208.77784195816108L417.30006914062506,200.4633893533329L418.10957460937504,211.4571499607851L418.58791875,214.29689215530414L419.47101562499995,214.4495744651032L423.003403125,204.9928739043809L423.88649999999996,219.86413657529837L425.87346796875,230.91520565680509L426.24142500000005,229.31053456630232L426.94054335937506,233.6128385512328L428.927511328125,261.4630147441375L429.25867265625004,229.8823180906051L430.36254375,257.3834669943687L430.47293085937497,235.66350688318587L430.914479296875,259.9768225639074L431.90796328125,225.92120895231815L432.05514609374995,214.53485541266727L435.88189921875005,219.81652572116516L436.17626484375,194.6845444558127L436.72820039062503,194.14708108296313L440.29738359375006,207.43469390566304L441.254071875,188.37743644562934L442.06357734375,184.9354278080045L445.44878203124995,196.73464162311856L445.74314765625,237.5794468281761L447.251771484375,242.01134778847768L449.496309375,196.28182507450612L450.63697617187495,213.27593303171412L452.99190117187504,203.5211125634493L453.65422382812505,223.5571075092942L454.022180859375,198.19244912322318L454.0589765625,193.37128831473964L454.758094921875,230.03337050243212L455.60439609375,220.70605874441063L456.303514453125,212.06998813342048L457.738546875,216.90208953713872L458.10650390625005,208.29752156185853L458.4744609375,206.3192179056393L458.584848046875,223.82068573695355L459.13678359375,219.43517821660598L460.35104179687505,200.0752746742515L463.95702070312495,238.8021420082225L465.2448703125,252.77973812027642L466.82708554687497,223.98392685852377L467.04785976562505,236.89597062568825L469.513171875,259.004116198922L470.2490859375,267.68781478281073L470.54345156249997,258.60385850605985L470.91140859375,251.28488566248436L472.19925820312505,228.1298440782667L474.6645703125,214.18958920679688L475.84203281249995,240.6492536983997L478.01297929687496,216.7266525488154L479.30082890625,216.0166954627164L479.70558164062504,224.56370518756546L480.147130078125,260.5548883584769L480.77265703125,225.49241596001542L484.96736718750003,238.90834644207436L486.25521679687495,241.76209415380697L486.475991015625,266.7658010193931L489.01489453125,240.08633616910512L490.63390546874996,244.26986624472408L490.85467968750004,223.2530237519397L491.700980859375,229.65720826802922L491.884959375,225.3634060940061L492.21612070312494,205.94934220715928L495.527733984375,204.4570331355162L495.63812109375,227.80599545340877L496.66840078125006,228.02361034801177L497.0363578125,184.77451026166767L499.17050859375,238.30613034827155L500.45835820312504,206.2592041187616L501.67261640625,235.92592583562595L501.70941210937497,180.35987120104656L503.73317578125,193.1976512930434L503.91715429687497,200.7817465792914L508.47982148437495,181.10198698097565L508.59020859375005,213.89040021923236L510.65076796874996,229.91801919950572L510.90833789062503,225.8615746021943L511.60745625000004,242.86330935958412L511.717843359375,221.1336605429817L512.490553125,226.04092013240702L512.748123046875,238.2630872100633L513.59442421875,244.3495218440911L514.219951171875,223.56997023448457L514.882273828125,261.3999169390654L515.103048046875,259.115553047322L515.471005078125,223.15663750274115L517.163607421875,261.8532742624637L517.457973046875,259.62156291629657L523.45567265625,206.76969573808603L523.713242578125,235.93423317826242L524.7067265625,223.7552239843033L526.436124609375,242.85987317302934L526.7672859375,267.8170718537723L527.9447484375,202.41301414305744L528.717458203125,186.07564555076155L530.2996734375,217.42963056995168L530.410060546875,258.1855873129452L531.145974609375,264.7778791915221L531.40354453125,255.8999898200653L532.3602328125,244.5900851371598L534.93593203125,222.98238235129475L535.267093359375,244.62267782992905L535.52466328125,255.22779585275447L536.003007421875,259.5049189396372L536.812512890625,257.59196800329636L538.210749609375,244.32957002688622L539.314620703125,205.3737350561677L540.160921875,217.7397480536729L540.82324453125,208.5563230777398L543.39894375,237.67511655214497L546.048234375,211.64215756119822L546.158621484375,225.001043322988L547.630449609375,231.0461831109264L548.513546484375,215.4043464668859L550.9052671875,242.48479080241273L553.77533203125,270.5542113783029L553.959310546875,260.6467109919622L554.06969765625,254.2821653485812L555.0263859375,252.86005941035933L556.645396875,273.2062235623726L557.234128125,258.3798540011112L558.117225,244.29006566480123L558.742751953125,287.39414615370487L561.355246875,270.5289495931946L562.0911609375,290.3691636794251L562.348730859375,265.03843291965336L566.5066453125,302.9952804265778L566.617032421875,299.3510223238846L567.3897421875,285.0584142610024L569.560688671875,269.0867651901936L569.928645703125,263.55476851276035L570.075828515625,240.36561415101826L571.14290390625,180.39443265152835L572.32036640625,221.05910235023927L572.357162109375,219.14153113651497L574.270538671875,241.06688554430116L574.896065625,266.9887514479166L575.41120546875,265.582000273824L575.99993671875,256.2109220119121L576.625463671875,228.05634129503377L578.097291796875,219.7227643155009L579.789894140625,240.52573123688262L579.82668984375,211.09233744499466L580.6361953125,259.7576891559233L580.893765234375,293.2027505227859L581.924044921875,259.25833384141L582.292001953125,289.39222224525946L582.47598046875,297.6391290822245L582.880733203125,258.4017710287679L583.21189453125,262.44956682122285L583.727034375,243.45894240337879L585.12527109375,250.73138474920518L585.235658203125,228.93626260508663L586.486712109375,237.9309208380657L586.633894921875,240.6454738372305L587.48019609375,228.24019163815865L587.7009703125,236.00618514403052L587.77456171875,185.70694808654167L589.24638984375,221.23778214301754L589.4671640625,244.84118683261718L589.945508203125,236.8386868592254L590.12948671875,228.94615955929712L592.48441171875,232.48019895842054L593.183530078125,218.25899868155707L593.51469140625,207.77993383479708L595.170498046875,213.2386137965947L596.01679921875,271.14651498812583L596.090390625,268.98075656899886L596.127186328125,256.933297777221L598.2981328125,255.12366683485374L598.73968125,248.21447495223217L604.148649609375,254.3992947518881L606.098821875,240.99861426055708L606.8347359375,268.5652990087881L607.975402734375,248.28267954513504L608.3065640625,233.47138761840793L608.932091015625,245.70483433883652L609.226456640625,219.07920402130117L609.55761796875,228.63317438880915L610.698284765625,245.49054287334448L612.1333171875,243.27764152715685L612.574865625,276.21972906207077L613.421166796875,267.26696592378136L613.936306640625,270.82146027588607L614.009898046875,268.90285827171687L616.659188671875,265.0997719836826L619.308479296875,267.9486916101274L620.853898828125,297.6640096920876L623.6135765625,283.32830792755624L624.386286328125,260.94025960609684L624.57026484375,246.26220090709816L625.0854046875,243.5634920970733L625.637340234375,245.1477722116378L625.89491015625,257.55898422936934L626.594028515625,266.72736785282854L627.035576953125,266.7861175411451L630.60476015625,263.41740059224315L631.5614484375,274.38000452204324L631.70863125,256.9082670792131L632.2973625,280.19319251101155L633.511620703125,263.7001922275669L633.84278203125,258.98979008923214L636.19770703125,256.09359223013246L636.308094140625,241.51049640956086L636.896825390625,238.18164886624888L640.0980515625,236.29835803107062L640.429212890625,219.68159941234018L641.5698796875,219.6907907893152L642.37938515625,237.79573757300236L643.188890625,251.9691332918876L645.874976953125,299.6758088639614L648.524267578125,278.5866222168623L650.216869921875,305.3483710182517L651.247149609375,298.688510412614L653.41809609375,269.56846213074556L654.00682734375,283.3504608856243L655.147494140625,271.96313923530784L656.21456953125,238.5541184839259L657.318440625,262.0190259663587L657.796784765625,282.7201202734474L658.495903125,290.54863158981817L660.078118359375,291.35653754135376L660.814032421875,286.7861133618176L662.948183203125,251.92141013359125L663.57371015625,273.6492195378497L664.567194140625,273.51639391237273L664.89835546875,267.9954861464788L665.33990390625,263.4735516936923L665.78145234375,302.6977629379105L666.333387890625,288.78766916770104L666.480570703125,285.72109936961715L667.10609765625,296.08020233754905L668.43074296875,250.27973425211803L669.90257109375,261.7692511668915L669.939366796875,261.2363864477036L670.086549609375,239.11830241956102L671.116829296875,263.4119434728115L673.839711328125,301.1602297014937L675.164356640625,280.1562476251L677.11452890625,293.29238343703116L677.26171171875,296.4779163622229L677.99762578125,299.2261737000629L679.800615234375,267.0853628223979L680.867690625,216.71232457487994L682.41311015625,247.42143199607332L684.289691015625,228.0324036964009L684.8416265625,250.63490354459628L685.1359921875,256.78868084868367L685.35676640625,253.0693513439127L687.306938671875,241.39582712878922L687.41732578125,245.87333527917735L688.88915390625,247.8388425892346L689.809046484375,234.36382088987796L690.06661640625,237.32162659331544L690.876121875,256.4476933129846L692.12717578125,257.45869753997613L693.415025390625,285.49885856231595L694.2613265625,276.80544000427193L694.8500578125,262.11241343399024L696.800230078125,248.92054892967215L697.536144140625,272.61639214252466L697.64653125,277.29417896615985L698.01448828125,270.703496696291L698.2352625,295.30667102423195L699.04476796875,304.69422525210615L702.062015625,331.3766231240999L707.250209765625,318.70724676560224L707.470983984375,297.9555075094643L709.678726171875,267.7956939898701L709.715521875,296.4571874719248L709.93629609375,280.4262568047337L710.267457421875,241.5045564915087L710.892984375,267.4133862627221L711.3345328125,284.31898947421087L711.55530703125,303.7628863844443L713.726253515625,330.8700565593028L715.566038671875,333.6330217965734L717.29543671875,299.38204072158993L718.62008203125,273.1033366831216L719.50317890625,287.07739966671033L719.613566015625,302.14588400503186L722.37324375,316.80725501368534L722.59401796875,273.7374986330176L723.6978890625,281.51127451258435L724.029050390625,304.3332920948542L724.176233203125,313.1229434450406L724.397007421875,276.27105929652544L726.56795390625,286.6560570110862L727.782212109375,321.7970789129527L727.8190078125,296.29824391280573L728.1133734375,259.0537266297885L728.26055625,272.8710515282427L728.886083203125,262.634240020408L731.241008203125,261.06714337522476L731.9401265625,277.6981672915553L733.154384765625,254.3495509461927L733.19118046875,267.83472215316533L734.07427734375,252.86476856063723L736.907546484375,258.10941269790584L739.22567578125,251.96412278610197L740.7710953124999,258.7446096012877L740.9182781249999,266.48471057762134L742.5372890624999,301.18369597370145L743.2364074218749,300.9052115389443L745.7017195312501,254.8413606141377L747.8358703125,295.00829365126134L748.461397265625,263.73772026236776L748.682171484375,291.2938832101023L751.6626234375001,344.12696165128534L752.6929031249999,298.2779247476855L753.318430078125,309.7308846570154L753.3920214843749,269.06829863076905L754.569483984375,302.0668989682471L755.7101507812499,350.10296900392945L757.8810972656249,345.0254091388055L763.1428828124999,338.5470220628415L764.0259796875,285.86520228699015L764.3571410156251,269.5102102056899L764.577915234375,282.9793616183479L766.270517578125,267.5699558679203L766.3809046875001,256.1474514218141L767.0800230468751,256.17213417152414L767.7791414062499,294.53011644413L771.937055859375,276.5354477789498L772.452195703125,262.8079782439518L774.770325,279.99293188816546L776.2053574218751,314.84959461572885L776.9780671875001,277.482166063205L779.1490136718751,293.718136912294L779.6273578124999,298.41728812739643L779.9953148437501,293.7031375481953L780.14249765625,324.21601636778666L781.8718957031249,316.69081787055416L784.5211863281249,297.22690083476743L785.330691796875,307.65615619169097L785.9562187500001,273.84859449141436L787.64882109375,291.69333926078286L788.8998750000001,293.74755187450154L791.291595703125,290.4104537746226L793.278563671875,294.50207375391903L794.235251953125,337.52006768636204L794.4192304687499,321.7138724299883L797.0317253906251,319.76498913628933L797.178908203125,324.64951956204123L798.3563707031251,304.3110111352381L800.1593601562499,297.14695277793095L802.44069375,302.1799059658392L802.4774894531249,289.41644696142L803.3973820312499,258.0501312203493L803.728543359375,274.7531105968995L804.2436832031251,289.0813892828248L805.7891027343751,296.2925793402802L806.7089953125001,284.09366306033786L811.93398515625,287.2304917989525L813.0746519531251,266.37977655819816L814.3257058593749,279.0006609364935L815.1720070312499,281.4838507376406L816.5702437499999,298.0224245887147L816.9382007812501,282.6194979598694L818.299641796875,295.0821870292511L818.594007421875,292.38208906478127L819.1091472656251,311.3820445171318L819.5138999999999,280.65608130054284L820.17622265625,297.49901991166985L820.2498140625,298.86644282479244L821.096115234375,294.7540927655457L821.1329109374999,265.7591193083405L821.169706640625,282.2316504897415L821.2800937500001,301.0373872012765L821.9792121093751,294.3422044858769L823.26706171875,283.35400577115195L823.892588671875,245.69595501684736L824.407728515625,263.389865268586L825.18043828125,266.23344653314246L825.8427609375001,243.7295858535464L826.21071796875,276.29535327719134L828.0137074218751,285.7388054647371L829.4855355468751,264.6585558314286L830.000675390625,302.0775942037087L830.221449609375,283.3655817126027L830.7365894531249,306.38586006635387L831.06775078125,309.1171172165571L831.325320703125,298.6158710968345L831.3621164062499,298.6078937774823L831.5092992187499,284.6027394893728L832.4291917968751,298.4685889066738L832.797148828125,317.6598322779676L833.5330628906249,329.76179470572583L834.0482027343751,315.5840109087711L835.3728480468751,329.18585220464496L836.0719664062501,314.9599779421509L837.874955859375,294.5154749539704L837.9117515625001,314.51329930559854L839.0892140625001,306.5339295066201L840.4874507812499,296.7728401023549L844.5717738281251,295.91722301634167L844.9029351562499,317.29097320632144L845.49166640625,329.4796338180502L845.6020535156249,305.2485168029765L845.93321484375,312.2097240711203L846.96349453125,312.5232372892375L848.2145484375001,320.3267894095419L848.251344140625,312.8084824237346L848.6928925781251,303.96968401238917L850.127925,296.88090867184394L851.047817578125,313.86214456152317L851.67334453125,311.6932347277373L853.29235546875,313.07505311864463L854.1754523437501,323.0739833826713L854.9849578124999,340.0926416871395L856.0152375,325.11571304785446L858.0022054687499,317.9868185161911L859.6212164062499,334.01904569265054L862.896033984375,301.42192285357316L862.9328296875001,319.464713419966L866.1340558593749,316.8889545626899L866.4284214843749,276.1935608003269L868.084228125,272.27399597633536L870.2919703125001,273.2957284950646L872.5365082031251,276.8221618187145L872.7940781249999,330.07604177056334L873.8611535156249,300.8310706975986L875.22259453125,306.09613742246876L875.848121484375,323.04615826316007L877.393541015625,316.92213747356L879.159734765625,326.42892514394555L880.631562890625,317.16884618365185L881.55145546875,356.66176369470065L882.250573828125,359.3216915263817L882.43455234375,342.22333217333176L883.280853515625,331.3458508286398L883.648810546875,302.9495419876536L884.0903589843749,314.3030714699011L884.8630687499999,288.01667140465884L886.592466796875,306.49455916157314L887.3651765625,286.1281632744816L888.7266175781249,300.79818293271194L889.315348828125,312.8595251878983L891.4494996093749,316.8825032631997L893.0685105468749,286.8177813252034L893.2156933593751,287.6399900297434L894.1355859375001,307.59805616637624L895.0922742187499,305.1852931226321L900.9427910156251,320.7365715128694L901.4947265625001,331.9914744904892L901.605113671875,307.4209408070275L902.4146191406251,315.35285779365046L902.635393359375,254.93549667064426L903.48169453125,276.32364600034595L904.401587109375,279.50799795554104L904.95352265625,288.60391591273765L906.42535078125,299.52076469999065L906.646125,289.24198692610616L907.1612648437499,306.7365499415534L907.566017578125,311.973557754285L907.89717890625,335.90800585544446L909.58978125,305.4786988009827L909.8473511718751,278.48442701050726L909.994533984375,302.97076942299344L910.215308203125,300.88864017414323L912.3862546875,314.4914795204365L913.379738671875,307.72400552254726L914.22603984375,310.0768603395512L916.8017390625,331.7477285420443L917.6112445312499,314.4114349859728L918.825502734375,314.09498016922544L919.119868359375,310.68167992874413L919.4510296875001,332.35512099884164L919.7085996093749,293.50915639709535L921.1804277343749,329.1595366851047L921.658771875,280.3651327319719L921.842750390625,266.4283313367654L922.063524609375,310.8505463408375L922.1739117187501,327.80649351114755L924.9703851562499,326.1762727451063L925.007180859375,323.8886582231391L925.080772265625,272.7652035641606L926.626191796875,288.42287521004357L926.7365789062501,265.35408415615404L927.877245703125,279.1907060852639L928.8707296875,313.19498292162973L928.9811167968751,345.922500329986L929.1650953125,355.7606948404386L931.2256546875001,305.1816248192824L931.7775902343751,312.91519209218205L932.1087515625,328.352061015726L932.1823429687499,321.49874054509445L933.617375390625,324.76652234354634L933.985332421875,348.2117554821522L934.5004722656249,334.1224053938167L936.0826875,306.75406878386815L936.8921929687499,298.6419357915466L937.7384941406251,320.58237431743464L939.24711796875,331.3461373959915L939.725462109375,299.70104258830037L939.7622578124999,304.5364899316166L940.4613761718749,321.81332014395474L940.498171875,317.0180821338975L940.57176328125,316.61833810407336L940.7557417968751,313.14548563757745L941.1604945312499,300.97261631389057L945.208021875,298.9763441676875L945.2448175781251,309.73369601343967L945.8703445312501,284.80386425542287L946.0175273437501,305.61265362047874L947.378968359375,319.55473655831673L948.5196351562499,324.1316883284442L948.556430859375,310.82663785013517L948.6668179687499,336.5062850047795L948.703613671875,302.51094236620503L950.1386460937499,335.17455692414563L950.469807421875,306.4841543203797L951.3529042968751,295.52847127945256L952.5671625,300.1838532926194L953.4502593750001,292.04474813945853L953.487055078125,306.01176372770357L954.811700390625,306.0563801109984L956.209937109375,316.2383238464691L957.681765234375,294.9512339428116L957.976130859375,299.4709830679024L958.0129265625001,289.75269987173505L959.153593359375,300.70636654887414L959.4847546875001,271.198141579796L959.6319375,337.50757026919183L961.9868624999999,345.77508401994135L964.3785832031249,316.85434842171384L965.2248843750001,278.5091573003039L965.813615625,291.42345505968257L968.3157234375001,311.5399345458325L968.426110546875,330.4904827624944L968.6100890625,314.75238177927275L971.075401171875,310.5856106169618L971.7377238281249,280.4156449977357L974.4974015625,329.77631276566774L975.9324339843749,314.1629817173829L975.9692296875,316.690257176059L978.7657031250001,285.43670015747216L979.1704558593749,302.072053815995L981.746155078125,290.8002123366168L982.22449921875,281.48144099763886L983.291574609375,272.77918552186014L983.3283703125,329.5639446915484L984.8369941406249,362.56909197277315L985.720091015625,344.4009931966985L985.940865234375,331.6331252299411L986.6767792968751,336.56086059623277L986.8975535156251,303.22649810817506L987.6702632812501,288.7127253915204L987.8910375,327.5241926861473L990.0987796874999,321.84529250625116L992.2697261718749,327.99308201553094L993.447188671875,330.23223279357785L993.7047585937501,334.9921022576135L996.79559765625,299.7194002231976L1001.5790390625,321.96207323476773L1002.498931640625,310.8533472558116L1002.97727578125,294.3855693111944L1003.970759765625,284.8104411249423L1004.2283296875,319.76085262919787L1004.6330824218751,302.2728141815728L1004.8170609375,330.3563329712186L1005.074630859375,316.48716602403096L1005.1114265624999,292.88366560974805L1005.62656640625,326.9939749481236L1006.6568460937499,332.3039783359545L1009.1957496093751,313.6266493261346L1009.3061367187499,312.5822548598294L1010.8515562499999,324.17445849032424L1012.0658144531251,314.75212597177045L1012.1394058593751,314.54068123959314L1013.500846875,311.2961127145232L1016.849255859375,296.8448167732925L1016.922847265625,317.27202491420354L1017.437987109375,300.87615098783294L1021.3751273437499,295.51871509467037L1021.632697265625,303.3312347884698L1022.0742457031249,334.7872263667843L1023.87723515625,318.062916600598L1023.9508265625,309.78653160924375L1024.355579296875,348.6257615893814L1024.392375,352.6337612077461L1024.576353515625,335.6710683308475L1027.70398828125,351.9147859316286L1027.814375390625,351.5070174088686L1027.85117109375,317.73730553938L1033.22334375,324.3342823473267L1033.3705265625,348.6897113068726L1033.407322265625,338.39319049039614L1034.03284921875,352.69906955321204L1034.584784765625,304.8771038321633L1034.952741796875,346.52553559680666L1035.35749453125,312.60719586084235L1035.541473046875,337.3104138407606L1035.7254515625,328.38199758696055L1035.872634375,340.2508175381396L1036.09340859375,317.05990183395016L1036.97650546875,338.02765232345394L1037.3444625,353.94410470138456L1038.30115078125,339.1242191941066L1038.3747421875,327.0543543175124L1038.705903515625,314.9272013344001L1039.956957421875,326.4092891532993L1040.80325859375,327.4782420555162L1042.0543125,319.8604994495416L1042.679839453125,345.7661767343532L1043.562936328125,340.53431178827344L1044.2620546875,329.41537142643955L1044.77719453125,322.6060323757411L1045.991452734375,323.9927573225142L1050.1493671875,317.08312535391457L1051.952356640625,325.55969297938645L1054.19689453125,343.11969000127465L1054.93280859375,341.6060569585688L1055.337561328125,327.0994037539426L1056.073475390625,326.30706328901965L1058.281217578125,326.99319777266845L1058.75956171875,325.5239309538239L1060.121002734375,330.21205660049293L1060.856916796875,328.7039069947808L1061.26166953125,328.78101538703885L1064.4261,330.5779042198561L1064.79405703125,335.0995993591499L1067.995283203125,314.2978529918766L1069.982251171875,328.6979610914278L1071.3436921875,330.0883408782029L1071.41728359375,342.4736455081475L1072.484358984375,312.8993195592649L1073.91939140625,319.7133090048674L1075.68558515625,282.9050105586471L1077.45177890625,308.08344380929174L1077.5253703125,335.1054411772594L1077.8197359375,328.89078215975087L1078.92360703125,342.38495673844477L1079.65952109375,336.63055510376523L1079.769908203125,376.89170334266936L1080.285048046875,346.7824855920042L1082.382403125,324.15312653165887L1085.914790625,317.7496289282135L1087.570597265625,325.7108263507034L1087.717780078125,334.5757109887673L1089.925522265625,299.8305686596669L1091.618124609375,308.6940774263758L1092.721995703125,333.20905419895155L1093.531501171875,316.38349686418525L1093.825866796875,312.3854303874301L1096.14399609375,318.7939899224901L1098.314942578125,332.76164783333064L1099.418813671875,340.09021574901703L1100.007544921875,339.2542596193511L1100.228319140625,326.0560836957076L1101.44257734375,293.1379115664054L1102.509652734375,346.87883723194847L1103.024792578125,307.53985268083943L1104.165459375,289.837744028408L1105.600491796875,328.76325048557857L1108.764922265625,348.66736776407527L1111.45100859375,327.3948990443149L1112.370901171875,353.3750103284319L1112.8492453125,333.5066584730844L1113.07001953125,323.9661736083379L1113.106815234375,326.9007708823855L1113.180406640625,310.7374304431764L1116.0872671875,339.3577720472259L1118.258213671875,331.31646808728794L1122.452923828125,320.5589212613564L1123.004859375,301.9076287367573L1124.9182359375,282.6621638347024L1125.911719921875,316.7165647054372L1126.9787953125,322.82115438106945L1128.193053515625,321.66422523321353L1129.11294609375,344.6327245894156L1131.357483984375,370.0402175517421L1132.387763671875,372.0513175294569L1132.5717421875,338.1133977555121L1133.7492046875,336.97100527996247L1135.037054296875,348.2957576906404L1135.625785546875,356.9880823689561L1136.2513125,366.44292900949034L1137.759936328125,336.1814221043851L1139.673312890625,295.3728362867965L1141.218732421875,326.1435070906944L1141.733872265625,346.0715353923474L1142.322603515625,353.2040368535834L1143.09531328125,326.9386480559268L1143.426474609375,321.3149158114869L1144.015205859375,325.3428614911774L1144.12559296875,317.8220640807022L1146.33333515625,336.245887120002L1146.370130859375,332.0805994666782L1146.885270703125,350.4977548915727L1150.932798046875,343.00357095393457L1151.4111421875,352.4232809145893L1151.815894921875,358.25052986540624L1154.612368359375,355.0246410866491L1155.127508203125,325.72613670924864L1155.495465234375,346.4482011919198L1155.716239453125,347.19674826289105L1157.96077734375,295.1888148815677L1159.506196875,282.7861691728853L1165.31991796875,318.48798447924963L1166.7181546875,315.71965113320994L1168.41075703125,338.286994651154L1168.4843484375,335.89740381399554L1169.9561765625,333.00563674052444L1169.992972265625,357.0346210245286L1170.02976796875,352.2009126069146L1170.61849921875,356.62355906377235L1171.096843359375,360.5608587593337L1171.170434765625,348.1273574993262L1174.813209375,359.80636859760926L1179.927812109375,341.8051630299601L1180.33256484375,313.4257503172414L1182.68748984375,333.70855715973465L1182.9082640625,329.28919912926006L1183.12903828125,311.23089659984726L1183.27622109375,290.73267561582634L1183.313016796875,331.0451410134033L1186.07269453125,330.6558028618195L1187.54452265625,322.6040101726699L1189.568286328125,325.2262311319435L1190.63536171875,336.9017048050923L1193.57901796875,354.31834245572304L1193.983770703125,351.0074681085836L1194.278136328125,331.9699551484233L1196.044330078125,304.41245254979765L1196.927426953125,320.3884555553706L1198.399255078125,301.61434944745463L1198.5096421875,306.8901105338164L1199.650308984375,353.9324226584946L1200.018266015625,344.5362627609032L1200.2758359375,346.64404619253963L1200.79097578125,343.30828947085786L1200.93815859375,354.01160308847153L1203.035513671875,338.5351427650915L1203.771427734375,346.7205199527973L1203.88181484375,324.71613737584323L1204.654524609375,335.07293079615215L1207.818955078125,360.24573778271963L1209.437966015625,358.57110774099976L1211.1673640625,365.5232614853986L1211.24095546875,363.88346335187595L1212.41841796875,327.7414071405682L1213.080740625,332.54335271541044L1213.927041796875,359.3899891933985L1218.121751953125,342.1020857374464L1223.493924609375,336.2349904318946L1224.450612890625,343.65329138141357L1224.744978515625,334.01020272424563L1226.069623828125,336.4195338877575L1228.0933875,359.8150242165991L1230.37472109375,353.1936549343799L1230.853065234375,365.2187375624049L1231.1842265625,327.97770569717227L1234.238269921875,355.9952684541311L1235.3053453125,346.2997892449184L1236.740377734375,365.36767545093517L1239.1320984375,370.957932068653L1247.043174609375,361.98858407822615L1249.95003515625,353.83502604408744L1250.9067234375,333.31728924236535L1251.71622890625,356.825138752271L1252.415347265625,322.08870539298124L1253.151261328125,325.9676026564363L1253.33523984375,322.407234155214L1253.92397109375,326.90643618657L1254.36551953125,321.4176293519826L1254.95425078125,316.6349378182337L1255.947734765625,332.36357930073365L1258.449842578125,343.9921646255713L1259.700896484375,315.88496638032115L1260.25283203125,336.2561037574823L1260.657584765625,333.2593137043027L1260.731176171875,364.3715234407439L1261.025541796875,376.64244440240935L1261.2095203125,355.51756443104773L1262.423778515625,320.21090824167743L1264.52113359375,328.0065199472548L1266.029757421875,360.2121237088263" style="fill: none;" fill="none"></path></g></g></g></g><g opacity="0.2"><g><g><g><path stroke="rgb(255, 112, 67)" stroke-width="2px" d="M210.54501328125002,-11.69736766815192L212.34800273437497,16.041465759277337L212.863142578125,20.928517341613745L212.936733984375,-57.07907819747932L214.7397234375,-23.176704883575425L218.75045507812501,27.54348134994505L219.70714335937498,-23.317891597747852L219.74393906249998,-26.925481796264712L219.96471328125,75.90387201309201L220.95819726562502,-73.00496721267707L221.28935859375002,-35.343860626220724L223.09234804687497,33.74788379669187L223.20273515625001,-1.3431682586670244L224.19621914062498,-22.4204363822937L224.60097187500003,33.879252433776834L226.698326953125,-41.48140335083011L230.377897265625,-11.684230804443411L232.40166093750003,65.40979957580564L232.512048046875,103.89610862731934L233.027187890625,27.578466892242393L233.17437070312502,38.80260324478149L234.94056445312498,81.52776336669919L235.198134375,69.26056003570554L236.00763984374998,8.779269218444785L236.44918828124997,25.72202062606809L236.81714531249997,119.14572572708128L237.92101640624998,72.92940950393675L238.32576914062503,34.839488029479966L238.840908984375,47.79464817047116L240.018371484375,71.15448093414305L241.085446875,58.22649335861205L241.67417812500003,39.927395343780496L242.262909375,1.13389110565182L242.41009218750003,30.106206893920884L243.035619140625,65.70987319946289L244.32346875000002,-27.911645412445093L246.20004960937501,-3.4741058349609437L246.86237226562503,92.32460594177246L247.19353359374998,42.049966812133775L247.7086734375,52.18104696273803L247.78226484375,75.84814405441281L247.89265195312498,36.39731264114379L249.51166289062502,81.24926185607907L251.16746953125,69.0894351005554L251.8297921875,-7.158996105194111L252.160953515625,119.08273792266846L252.63929765625,58.655169963836634L252.74968476562498,72.14437818527222L253.044050390625,87.99815273284909L254.515878515625,51.313184261321986L255.14140546875,-39.278697013854995L255.619749609375,88.43595600128174L257.606717578125,100.19310331344603L258.8945671875,38.359406948089564L260.403191015625,68.98800468444823L261.102309375,115.36701059341429L264.450718359375,25.592933654785117L264.892266796875,79.7470269203186L265.333815234375,24.330688476562496L266.069729296875,60.990351200103724L266.2537078125,109.19517374038693L266.290503515625,25.47587728500364L267.026417578125,61.637514591217005L267.21039609375,59.260364532470675L268.866202734375,77.84688329696655L269.307751171875,126.58865785598755L270.59560078125,143.12326765060422L271.883450390625,25.398715496063215L271.92024609375,134.3448004722595L271.9938375,101.43612718582153L273.6128484375,158.35055208206177L274.238375390625,142.37792348861694L274.311966796875,50.167580604553194L274.4959453125,-28.570631980896067L275.415837890625,20.66799259185789L275.45263359375,39.11484575271604L275.820590625,87.63744211196897L275.89418203125,87.62174701690674L276.078160546875,75.94867563247678L277.1452359375,90.8354387283325L277.697171484375,59.36400747299192L277.917945703125,69.36510181426999L282.774978515625,58.906291484832764L284.7987421875,147.7534589767456L285.31388203125,140.89850521087644L286.601731640625,118.45728492736816L290.538871875,40.839923381805384L293.151366796875,64.52582693099976L294.770377734375,198.70464658737183L295.76386171875,178.97300815582278L295.874248828125,123.00402259826657L298.008399609375,104.53511333465575L300.289733203125,150.14713382720947L301.5775828125,128.5143837928772L302.82863671875,90.263916015625L303.3437765625,182.15994215011597L303.41736796875,145.12663936614987L303.454163671875,97.63763761520386L305.588314453125,165.20903205871582L308.200809375,168.86896228790283L309.378271875,174.83586406707764L310.18777734375,151.56757450103757L310.886895703125,87.46562576293942L312.0275625,124.49879026412961L316.443046875,145.3479609489441L317.10536953125,59.86901617050169L317.1789609375,174.4712815284729L319.01874609375,82.36983633041382L321.07930546875,137.13092184066772L321.631241015625,49.48377227783203L323.544617578125,151.0357389450073L324.31732734375,111.17462253570557L324.501305859375,75.98642683029172L324.574897265625,171.57252883911133L326.1571125,139.62568140029907L328.5120375,83.00393199920651L329.5423171875,212.25214099884033L330.572596875,90.43739175796509L332.4859734375,152.7475414276123L334.76730703125,113.79017210006711L335.172059765625,118.26327419281006L337.85814609375,187.14344596862796L338.3732859375,92.11662864685056L338.59406015625,178.92343378067017L339.513952734375,145.0758204460144L339.69793125,158.29026079177854L340.838598046875,156.9357118606567L342.347221875,137.09545230865479L342.825566015625,136.1205587387085L342.899157421875,171.78403234481812L345.879609375,104.402361869812L347.093867578125,52.65272951126095L349.2648140625,130.96731281280518L349.890341015625,97.05629682540892L350.66305078125,115.05144929885864L354.2690296875,146.52308797836304L355.593675,202.15258932113647L355.7408578125,209.70670080184937L356.0352234375,111.66725492477414L358.75810546875,133.99909353256226L360.1563421875,109.67743492126465L360.597890625,136.3604793548584L360.67148203125,139.8093900680542L362.06971875,161.40390491485596L362.5112671875,195.21473503112793L364.05668671875,122.0178589820862L366.55879453125,186.37086009979245L366.889955859375,190.63833570480347L367.00034296875,227.74126386642453L369.79681640624995,81.25652170181273L369.87040781250005,240.96413946151733L371.85737578124997,153.02154874801636L372.88765546875004,122.17861270904541L375.316171875,107.93845987319948L376.751204296875,172.31165027618408L380.06281757812496,226.47687530517575L380.651548828125,205.63005542755127L381.166688671875,123.91164159774779L383.4112265625,108.36962556838989L384.22073203125,203.96001434326172L386.90681835937505,196.7612895965576L386.98040976562504,167.2303113937378L388.157872265625,205.49433088302612L389.556108984375,146.71868896484375L392.24219531250003,136.64651727676392L392.389378125,184.0504059791565L392.94131367187504,109.88561964035031L394.44993750000003,128.59057760238645L394.560324609375,148.04585790634155L397.687959375,169.6834478378296L398.313486328125,144.33759784698483L398.4238734375,223.72767543792725L399.67492734375,188.69968032836914L399.74851875,281.2469491958618L400.006088671875,99.50355625152586L401.330733984375,231.49571037292483L402.10344375,174.84810209274292L402.986540625,151.6110644340515L403.391293359375,175.47970867156982L404.38477734375,207.190230846405L405.12069140625,163.1473741531372L405.30466992187496,244.49961519241336L409.20501445312505,166.04349946975705L409.572971484375,215.219343662262L411.41275664062505,197.52786016464236L412.11187500000005,233.4866366386414L412.590219140625,173.5239062309265L412.81099335937495,168.54240751266477L413.2893375,264.2915449142456L415.386692578125,185.72369670867917L416.23299375,194.93913745880127L416.41697226562496,217.89470052719116L417.30006914062506,192.14893674850464L418.10957460937504,222.4509105682373L418.58791875,217.136634349823L419.47101562499995,214.60225677490234L423.003403125,195.53617334365842L423.88649999999996,234.7353992462158L425.87346796875,241.9662747383118L426.24142500000005,227.70586347579956L426.94054335937506,237.91514253616333L428.927511328125,289.31319093704224L429.25867265625004,198.30162143707273L430.36254375,284.8846158981323L430.47293085937497,213.94354677200317L430.914479296875,284.2901382446289L431.90796328125,191.86559534072876L432.05514609374995,203.14850187301636L435.88189921875005,225.09819602966311L436.17626484375,169.55256319046018L436.72820039062503,193.60961771011353L440.29738359375006,220.72230672836304L441.254071875,169.3201789855957L442.06357734375,181.49341917037964L445.44878203124995,208.53385543823242L445.74314765625,278.42425203323364L447.251771484375,246.4432487487793L449.496309375,150.55230236053467L450.63697617187495,230.27004098892212L452.99190117187504,193.76629209518433L453.65422382812505,243.59310245513916L454.022180859375,172.82779073715207L454.0589765625,188.55012750625608L454.758094921875,266.6954526901245L455.60439609375,211.37874698638916L456.303514453125,203.43391752243042L457.738546875,221.73419094085693L458.10650390625005,199.69295358657837L458.4744609375,204.34091424942014L458.584848046875,241.32215356826782L459.13678359375,215.04967069625852L460.35104179687505,180.71537113189694L463.95702070312495,277.5290093421936L465.2448703125,266.7573342323303L466.82708554687497,195.18811559677124L467.04785976562505,249.80801439285275L469.513171875,281.1122617721558L470.2490859375,276.3715133666992L470.54345156249997,249.5199022293091L470.91140859375,243.9659128189087L472.19925820312505,204.97480249404907L474.6645703125,200.24933433532715L475.84203281249995,267.10891819000244L478.01297929687496,192.80405139923096L479.30082890625,215.3067383766174L479.70558164062504,233.11071491241458L480.147130078125,296.5460715293885L480.77265703125,190.42994356155396L484.96736718750003,252.32427692413333L486.25521679687495,244.61584186553958L486.475991015625,291.76950788497925L489.01489453125,213.4068713188171L490.63390546874996,248.45339632034302L490.85467968750004,202.23618125915527L491.700980859375,236.06139278411865L491.884959375,221.06960391998294L492.21612070312494,186.5352783203125L495.527733984375,202.9647240638733L495.63812109375,251.15495777130127L496.66840078125006,228.24122524261475L497.0363578125,141.5254101753235L499.17050859375,291.8377504348755L500.45835820312504,174.21227788925168L501.67261640625,265.59264755249023L501.70941210937497,124.79381656646729L503.73317578125,206.03543138504028L503.91715429687497,208.36584186553955L508.47982148437495,161.4222273826599L508.59020859375005,246.678813457489L510.65076796874996,245.94563817977905L510.90833789062503,221.80513000488284L511.60745625000004,259.8650441169739L511.717843359375,199.40401172637942L512.490553125,230.94817972183228L512.748123046875,250.48525428771975L513.59442421875,250.4359564781189L514.219951171875,202.7904186248779L514.882273828125,299.22986364364624L515.103048046875,256.8311891555786L515.471005078125,187.1977219581604L517.163607421875,300.54991102218634L517.457973046875,257.3898515701294L523.45567265625,153.9178285598755L523.713242578125,265.0987706184387L524.7067265625,211.57621479034424L526.436124609375,261.96452236175537L526.7672859375,292.7742705345154L527.9447484375,137.0089564323425L528.717458203125,169.73827695846558L530.2996734375,248.78361558914185L530.410060546875,298.9415440559387L531.145974609375,271.3701710700989L531.40354453125,247.0221004486084L532.3602328125,233.28018045425412L534.93593203125,201.3746795654297L535.267093359375,266.26297330856323L535.52466328125,265.8329138755799L536.003007421875,263.78204202651983L536.812512890625,255.6790170669556L538.210749609375,231.06717205047607L539.314620703125,166.41790008544922L540.160921875,230.10576105117798L540.82324453125,199.37289810180664L543.39894375,266.7939100265503L546.048234375,185.60919857025146L546.158621484375,238.35992908477786L547.630449609375,237.09132289886475L548.513546484375,199.76250982284543L550.9052671875,269.56523513793945L553.77533203125,298.6236319541931L553.959310546875,250.7392106056213L554.06969765625,247.91761970520022L555.0263859375,251.43795347213745L556.645396875,293.552387714386L557.234128125,243.55348443984985L558.117225,230.20027732849124L558.742751953125,330.49822664260864L561.355246875,253.66375303268435L562.0911609375,310.2093777656555L562.348730859375,239.7077021598816L566.5066453125,340.9521279335022L566.617032421875,295.7067642211914L567.3897421875,270.7658061981201L569.560688671875,253.11511611938477L569.928645703125,258.02277183532715L570.075828515625,217.17645978927615L571.14290390625,120.42325115203856L572.32036640625,261.7237720489502L572.357162109375,217.2239599227905L574.270538671875,262.9922399520874L574.896065625,292.910617351532L575.41120546875,264.17524909973145L575.99993671875,246.83984375000003L576.625463671875,199.90176057815552L578.097291796875,211.38918733596802L579.789894140625,261.32869815826416L579.82668984375,181.6589436531067L580.6361953125,308.4230408668518L580.893765234375,326.64781188964844L581.924044921875,225.3139171600342L582.292001953125,319.5261106491089L582.47598046875,305.8860359191895L582.880733203125,219.16441297531128L583.21189453125,266.497362613678L583.727034375,224.46831798553467L585.12527109375,258.00382709503174L585.235658203125,207.14114046096802L586.486712109375,246.92557907104495L586.633894921875,243.36002683639526L587.48019609375,215.8349094390869L587.7009703125,243.77217864990237L587.77456171875,135.40771102905273L589.24638984375,256.7686161994934L589.4671640625,268.4445915222168L589.945508203125,228.83618688583377L590.12948671875,221.0536322593689L592.48441171875,236.01423835754395L593.183530078125,204.03779840469363L593.51469140625,197.3008689880371L595.170498046875,218.69729375839236L596.01679921875,329.054416179657L596.090390625,266.8149981498718L596.127186328125,244.88583898544314L598.2981328125,253.31403589248657L598.73968125,241.3052830696106L604.148649609375,260.5841145515442L606.098821875,227.59793376922607L606.8347359375,296.13198375701904L607.975402734375,228.00006008148193L608.3065640625,218.66009569168094L608.932091015625,257.93828105926514L609.226456640625,192.45357370376587L609.55761796875,238.18714475631714L610.698284765625,262.34791135787964L612.1333171875,241.06474018096927L612.574865625,309.16181659698486L613.421166796875,258.31420278549194L613.936306640625,274.3759546279907L614.009898046875,266.9842562675476L616.659188671875,261.2966856956482L619.308479296875,270.79761123657227L620.853898828125,327.3793277740479L623.6135765625,268.99260616302496L624.386286328125,238.55221128463745L624.57026484375,231.58414220809937L625.0854046875,240.86478328704834L625.637340234375,246.73205232620242L625.89491015625,269.97019624710083L626.594028515625,275.89575147628784L627.035576953125,266.84486722946167L630.60476015625,260.04868364334106L631.5614484375,285.34260845184326L631.70863125,239.43652963638306L632.2973625,303.47811794281006L633.511620703125,247.20719194412234L633.84278203125,254.27938795089722L636.19770703125,253.19739437103274L636.308094140625,226.92740058898926L636.896825390625,234.852801322937L640.0980515625,234.41506719589233L640.429212890625,203.0648407936096L641.5698796875,219.69998216629028L642.37938515625,255.90068435668945L643.188890625,266.1425290107727L645.874976953125,347.38248443603516L648.524267578125,257.4974355697632L650.216869921875,332.1101198196411L651.247149609375,292.0286498069764L653.41809609375,240.44841384887692L654.00682734375,297.13245964050293L655.147494140625,260.57581758499146L656.21456953125,205.14509773254395L657.318440625,285.4839334487915L657.796784765625,303.4212145805359L658.495903125,298.377142906189L660.078118359375,292.1644434928894L660.814032421875,282.2156891822815L662.948183203125,217.056706905365L663.57371015625,295.37702894210815L664.567194140625,273.38356828689575L664.89835546875,262.4745783805847L665.33990390625,258.95161724090576L665.78145234375,341.9219741821289L666.333387890625,274.87757539749146L666.480570703125,282.6545295715332L667.10609765625,306.43930530548096L668.43074296875,204.479266166687L669.90257109375,273.25876808166504L669.939366796875,260.7035217285157L670.086549609375,217.00021839141846L671.116829296875,287.705584526062L673.839711328125,338.9085159301758L675.164356640625,259.15226554870605L677.11452890625,306.4285192489624L677.26171171875,299.66344928741455L677.99762578125,301.97443103790283L679.800615234375,234.9445519447327L680.867690625,166.33928632736206L682.41311015625,278.13053941726685L684.289691015625,208.64337539672852L684.8416265625,273.23740339279175L685.1359921875,262.942458152771L685.35676640625,249.35002183914187L687.306938671875,229.72230291366574L687.41732578125,250.35084342956543L688.88915390625,249.804349899292L689.809046484375,220.8887991905212L690.06661640625,240.2794322967529L690.876121875,275.5737600326538L692.12717578125,258.4697017669678L693.415025390625,313.5390195846558L694.2613265625,268.112021446228L694.8500578125,247.4193868637085L696.800230078125,235.728684425354L697.536144140625,296.3122353553772L697.64653125,281.9719657897949L698.01448828125,264.1128144264222L698.2352625,319.90984535217285L699.04476796875,314.08177947998047L702.062015625,358.05902099609375L707.250209765625,306.0378704071045L707.470983984375,277.2037682533264L709.678726171875,237.63588047027588L709.715521875,325.1186809539795L709.93629609375,264.3953261375427L710.267457421875,202.5828561782837L710.892984375,293.32221603393555L711.3345328125,301.22459268569946L711.55530703125,323.20678329467773L713.726253515625,357.9772267341614L715.566038671875,336.395987033844L717.29543671875,265.13105964660645L718.62008203125,246.82463264465335L719.50317890625,301.05146265029913L719.613566015625,317.2143683433533L722.37324375,331.4686260223389L722.59401796875,230.66774225234985L723.6978890625,289.2850503921509L724.029050390625,327.155309677124L724.176233203125,321.9125947952271L724.397007421875,239.41917514801025L726.56795390625,297.041054725647L727.782212109375,356.9381008148194L727.8190078125,270.7994089126587L728.1133734375,221.8092093467712L728.26055625,286.6883764266968L728.886083203125,252.39742851257327L731.241008203125,259.5000467300415L731.9401265625,294.32919120788574L733.154384765625,231.00093460083008L733.19118046875,281.319893360138L734.07427734375,237.8948149681091L736.907546484375,263.35405683517456L739.22567578125,245.81883287429812L740.7710953124999,265.5250964164734L740.9182781249999,274.2248115539551L742.5372890624999,335.8826813697815L743.2364074218749,300.626727104187L745.7017195312501,208.77750968933105L747.8358703125,335.175226688385L748.461397265625,232.46714687347415L748.682171484375,318.8500461578369L751.6626234375001,396.96004009246826L752.6929031249999,252.42888784408572L753.318430078125,321.1838445663452L753.3920214843749,228.4057126045227L754.569483984375,335.0654993057251L755.7101507812499,398.1390390396118L757.8810972656249,339.94784927368164L763.1428828124999,332.06863498687744L764.0259796875,233.18338251113892L764.3571410156251,253.15521812438965L764.577915234375,296.4485130310059L766.270517578125,252.16055011749268L766.3809046875001,244.72494697570804L767.0800230468751,256.19681692123413L767.7791414062499,332.88809871673584L771.937055859375,258.54077911376953L772.452195703125,249.08050870895386L774.770325,297.17788553237915L776.2053574218751,349.70625734329224L776.9780671875001,240.11473751068115L779.1490136718751,309.95410776138306L779.6273578124999,303.1164393424988L779.9953148437501,288.98898696899414L780.14249765625,354.728895187378L781.8718957031249,309.16561937332153L784.5211863281249,277.7629837989807L785.330691796875,318.0854115486145L785.9562187500001,240.0410327911377L787.64882109375,309.53808403015137L788.8998750000001,295.8017644882202L791.291595703125,287.0733556747437L793.278563671875,298.59369373321533L794.235251953125,380.538061618805L794.4192304687499,305.9076771736145L797.0317253906251,317.81610584259033L797.178908203125,329.53404998779297L798.3563707031251,283.97250270843506L800.1593601562499,289.98289442062384L802.44069375,307.21285915374756L802.4774894531249,276.65298795700073L803.3973820312499,226.68381547927856L803.728543359375,291.45608997344976L804.2436832031251,303.40966796875L805.7891027343751,303.5037693977356L806.7089953125001,271.8947467803955L811.93398515625,290.36732053756714L813.0746519531251,245.52906131744388L814.3257058593749,291.6215453147888L815.1720070312499,283.96704053878784L816.5702437499999,314.5609984397889L816.9382007812501,267.21657133102417L818.299641796875,307.5448760986328L818.594007421875,289.6819911003113L819.1091472656251,330.3819999694824L819.5138999999999,249.9301180839539L820.17622265625,314.34195852279663L820.2498140625,300.23386573791504L821.096115234375,290.6417427062989L821.1329109374999,236.76414585113525L821.169706640625,298.70418167114263L821.2800937500001,319.8431239128113L821.9792121093751,287.6470217704773L823.26706171875,272.365807056427L823.892588671875,208.03790426254272L824.407728515625,281.08377552032476L825.18043828125,269.077027797699L825.8427609375001,221.22572517395022L826.21071796875,308.8611207008362L828.0137074218751,295.1822576522827L829.4855355468751,243.57830619812015L830.000675390625,339.49663257598877L830.221449609375,264.6535692214966L830.7365894531249,329.406138420105L831.06775078125,311.84837436676025L831.325320703125,288.1146249771118L831.3621164062499,298.59991645812994L831.5092992187499,270.5975852012634L832.4291917968751,312.3344383239746L832.797148828125,336.8510756492615L833.5330628906249,341.8637571334839L834.0482027343751,301.40622711181646L835.3728480468751,342.78769350051886L836.0719664062501,300.734103679657L837.874955859375,274.0709719657898L837.9117515625001,334.51112365722656L839.0892140625001,298.5545597076416L840.4874507812499,287.0117506980896L844.5717738281251,295.0616059303284L844.9029351562499,338.6647233963013L845.49166640625,341.66829442977905L845.6020535156249,281.01739978790283L845.93321484375,319.1709313392639L846.96349453125,312.8367505073548L848.2145484375001,328.13034152984625L848.251344140625,305.29017543792725L848.6928925781251,295.1308856010437L850.127925,289.7921333312988L851.047817578125,330.8433804512024L851.67334453125,309.5243248939514L853.29235546875,314.456871509552L854.1754523437501,333.072913646698L854.9849578124999,357.11129999160767L856.0152375,310.13878440856934L858.0022054687499,310.8579239845276L859.6212164062499,350.0512728691101L862.896033984375,268.82480001449585L862.9328296875001,337.50750398635864L866.1340558593749,314.3131957054138L866.4284214843749,235.49816703796387L868.084228125,268.3544311523438L870.2919703125001,274.31746101379395L872.5365082031251,280.3485951423645L872.7940781249999,383.32992172241217L873.8611535156249,271.5860996246338L875.22259453125,311.36120414733887L875.848121484375,339.9961791038514L877.393541015625,310.79811668395996L879.159734765625,335.93571281433105L880.631562890625,307.90876722335815L881.55145546875,396.1546812057495L882.250573828125,361.9816193580628L882.43455234375,325.124972820282L883.280853515625,320.46836948394775L883.648810546875,274.5532331466675L884.0903589843749,325.65660095214844L884.8630687499999,261.7302713394165L886.592466796875,324.97244691848755L887.3651765625,265.76176738739014L888.7266175781249,315.4682025909424L889.315348828125,324.9208674430847L891.4494996093749,320.90548133850103L893.0685105468749,256.75305938720703L893.2156933593751,288.46219873428345L894.1355859375001,327.5561223030091L895.0922742187499,302.77253007888794L900.9427910156251,336.2878499031067L901.4947265625001,343.2463774681092L901.605113671875,282.8504071235657L902.4146191406251,323.28477478027344L902.635393359375,194.51813554763794L903.48169453125,297.7117953300476L904.401587109375,282.6923499107361L904.95352265625,297.6998338699341L906.42535078125,310.4376134872437L906.646125,278.9632091522217L907.1612648437499,324.23111295700073L907.566017578125,317.2105655670166L907.89717890625,359.842453956604L909.58978125,275.049391746521L909.8473511718751,251.49015522003177L909.994533984375,327.4571118354798L910.215308203125,298.80651092529297L912.3862546875,328.09431886672974L913.379738671875,300.9565315246582L914.22603984375,312.4297151565552L916.8017390625,353.41859674453735L917.6112445312499,297.0751414299011L918.825502734375,313.778525352478L919.119868359375,307.26837968826294L919.4510296875001,354.02856206893927L919.7085996093749,254.66319179534912L921.1804277343749,364.80991697311407L921.658771875,231.57072877883914L921.842750390625,252.49152994155884L922.063524609375,355.27276134490967L922.1739117187501,344.7624406814576L924.9703851562499,324.54605197906494L925.007180859375,321.6010437011719L925.080772265625,221.64174890518186L926.626191796875,304.08054685592657L926.7365789062501,242.2852931022644L927.877245703125,293.0273280143738L928.8707296875,347.1992597579956L928.9811167968751,378.6500177383423L929.1650953125,365.5988893508911L931.2256546875001,254.60255479812625L931.7775902343751,320.6487593650818L932.1087515625,343.78892993927L932.1823429687499,314.6454200744629L933.617375390625,328.03430414199835L933.985332421875,371.6569886207581L934.5004722656249,320.03305530548096L936.0826875,279.3857321739197L936.8921929687499,290.52980279922485L937.7384941406251,342.5228128433228L939.24711796875,342.10990047454834L939.725462109375,268.05594778060913L939.7622578124999,309.37193727493286L940.4613761718749,339.0901503562928L940.498171875,312.2228441238404L940.57176328125,316.21859407424927L940.7557417968751,309.67263317108154L941.1604945312499,288.79974699020386L945.208021875,296.9800720214844L945.2448175781251,320.4910478591919L945.8703445312501,259.874032497406L946.0175273437501,326.42144298553467L947.378968359375,333.49681949615484L948.5196351562499,328.7086400985718L948.556430859375,297.5215873718262L948.6668179687499,362.1859321594239L948.703613671875,268.5155997276306L950.1386460937499,367.8381714820862L950.469807421875,277.7937517166138L951.3529042968751,284.57278823852545L952.5671625,304.83923530578613L953.4502593750001,283.9056429862976L953.487055078125,319.97877931594854L954.811700390625,306.1009964942932L956.209937109375,326.42026758193975L957.681765234375,273.66414403915405L957.976130859375,303.99073219299316L958.0129265625001,280.0344166755676L959.153593359375,311.66003322601324L959.4847546875001,241.68991661071777L959.6319375,403.81699895858765L961.9868624999999,354.042597770691L964.3785832031249,287.9336128234863L965.2248843750001,240.16396617889404L965.813615625,304.3377528190613L968.3157234375001,331.6564140319824L968.426110546875,349.44103097915655L968.6100890625,299.0142807960511L971.075401171875,306.4188394546509L971.7377238281249,250.24567937850952L974.4974015625,379.13698053359985L975.9324339843749,298.5496506690979L975.9692296875,319.2175326347351L978.7657031250001,254.1831431388855L979.1704558593749,318.7074074745178L981.746155078125,279.52837085723877L982.22449921875,272.1626696586609L983.291574609375,264.07693004608154L983.3283703125,386.34870386123663L984.8369941406249,395.5742392539978L985.720091015625,326.23289442062384L985.940865234375,318.86525726318365L986.6767792968751,341.4885959625244L986.8975535156251,269.8921356201172L987.6702632812501,274.1989526748657L987.8910375,366.3356599807739L990.0987796874999,316.166392326355L992.2697261718749,334.14087152481085L993.447188671875,332.47138357162476L993.7047585937501,339.75197172164917L996.79559765625,264.44669818878174L1001.5790390625,344.2047462463379L1002.498931640625,299.74462127685547L1002.97727578125,277.9177913665772L1003.970759765625,275.2353129386902L1004.2283296875,354.71126413345337L1004.6330824218751,284.78477573394775L1004.8170609375,358.4398517608643L1005.074630859375,302.61799907684326L1005.1114265624999,269.2801651954651L1005.62656640625,361.104284286499L1006.6568460937499,337.61398172378546L1009.1957496093751,294.9493203163147L1009.3061367187499,311.53786039352417L1010.8515562499999,335.7666621208191L1012.0658144531251,305.32979345321655L1012.1394058593751,314.32923650741577L1013.500846875,308.0515441894531L1016.849255859375,282.39352083206177L1016.922847265625,337.69923305511475L1017.437987109375,284.4802770614624L1021.3751273437499,290.16127920150757L1021.632697265625,311.1437544822693L1022.0742457031249,366.2432179450989L1023.87723515625,301.3386068344116L1023.9508265625,301.5101466178894L1024.355579296875,387.46499156951904L1024.392375,356.6417608261109L1024.576353515625,318.708375453949L1027.70398828125,368.15850353240967L1027.814375390625,351.09924888610846L1027.85117109375,283.96759366989136L1033.22334375,330.9312591552735L1033.3705265625,373.04514026641846L1033.407322265625,328.0966696739197L1034.03284921875,367.00494861602783L1034.584784765625,257.05513811111456L1034.952741796875,388.17396736145025L1035.35749453125,278.68885612487793L1035.541473046875,362.01363182067877L1035.7254515625,319.4535813331604L1035.872634375,352.11963748931885L1036.09340859375,293.86898612976074L1036.97650546875,358.99540281295776L1037.3444625,369.8605570793152L1038.30115078125,324.3043336868286L1038.3747421875,314.98448944091797L1038.705903515625,302.80004835128784L1039.956957421875,337.8913769721985L1040.80325859375,328.5471949577332L1042.0543125,312.2427568435669L1042.679839453125,371.6718540191651L1043.562936328125,335.30244684219366L1044.2620546875,318.2964310646057L1044.77719453125,315.7966933250427L1045.991452734375,325.3794822692871L1050.1493671875,310.173493385315L1051.952356640625,334.0362606048584L1054.19689453125,360.67968702316284L1054.93280859375,340.09242391586304L1055.337561328125,312.5927505493164L1056.073475390625,325.51472282409674L1058.281217578125,327.67933225631714L1058.75956171875,324.05466413497925L1060.121002734375,334.90018224716187L1060.856916796875,327.1957573890686L1061.26166953125,328.8581237792969L1064.4261,332.3747930526734L1064.79405703125,339.6212944984436L1067.995283203125,293.49610662460327L1069.982251171875,343.09806919097906L1071.3436921875,331.478720664978L1071.41728359375,354.85895013809204L1072.484358984375,283.3249936103821L1073.91939140625,326.52729845046997L1075.68558515625,246.09671211242673L1077.45177890625,333.2618770599365L1077.5253703125,362.12743854522705L1077.8197359375,322.67612314224243L1078.92360703125,355.8791313171387L1079.65952109375,330.8761534690857L1079.769908203125,417.15285158157354L1080.285048046875,316.67326784133917L1082.382403125,301.5237674713135L1085.914790625,311.34613132476807L1087.570597265625,333.67202377319336L1087.717780078125,343.44059562683105L1089.925522265625,265.0854263305664L1091.618124609375,317.5575861930847L1092.721995703125,357.7240309715271L1093.531501171875,299.55793952941895L1093.825866796875,308.3873639106751L1096.14399609375,325.20254945755005L1098.314942578125,346.72930574417114L1099.418813671875,347.4187836647034L1100.007544921875,338.41830348968506L1100.228319140625,312.8579077720642L1101.44257734375,260.21973943710327L1102.509652734375,400.61976289749146L1103.024792578125,268.2008681297302L1104.165459375,272.13563537597656L1105.600491796875,367.6887569427491L1108.764922265625,368.571485042572L1111.45100859375,306.1224303245545L1112.370901171875,379.3551216125488L1112.8492453125,313.6383066177368L1113.07001953125,314.4256887435913L1113.106815234375,329.8353681564331L1113.180406640625,294.5740900039673L1116.0872671875,367.97811365127563L1118.258213671875,323.27516412734985L1122.452923828125,309.80137443542486L1123.004859375,283.2563362121582L1124.9182359375,263.4166989326477L1125.911719921875,350.77096557617193L1126.9787953125,328.92574405670166L1128.193053515625,320.5072960853577L1129.11294609375,367.6012239456177L1131.357483984375,395.44771051406866L1132.387763671875,374.0624175071717L1132.5717421875,304.1754779815674L1133.7492046875,335.82861280441284L1135.037054296875,359.6205101013184L1135.625785546875,365.68040704727173L1136.2513125,375.8977756500244L1137.759936328125,305.9199151992798L1139.673312890625,254.56425046920776L1141.218732421875,356.9141778945923L1141.733872265625,365.9995636940003L1142.322603515625,360.33653831481934L1143.09531328125,300.67325925827026L1143.426474609375,315.6911835670471L1144.015205859375,329.3708071708679L1144.12559296875,310.30126667022705L1146.33333515625,354.6697101593018L1146.370130859375,327.91531181335455L1146.885270703125,368.91491031646734L1150.932798046875,335.5093870162964L1151.4111421875,361.84299087524414L1151.815894921875,364.07777881622314L1154.612368359375,351.79875230789185L1155.127508203125,296.42763233184814L1155.495465234375,367.1702656745911L1155.716239453125,347.9452953338623L1157.96077734375,243.1808815002441L1159.506196875,270.3835234642029L1165.31991796875,354.189799785614L1166.7181546875,312.9513177871704L1168.41075703125,360.85433816909796L1168.4843484375,333.50781297683716L1169.9561765625,330.1138696670532L1169.992972265625,381.0636053085328L1170.02976796875,347.36720418930054L1170.61849921875,361.04620552062994L1171.096843359375,364.498158454895L1171.170434765625,335.69385623931885L1174.813209375,371.48537969589233L1179.927812109375,323.8039574623108L1180.33256484375,285.0463376045227L1182.68748984375,353.99136400222784L1182.9082640625,324.8698410987854L1183.12903828125,293.17259407043457L1183.27622109375,270.2344546318054L1183.313016796875,371.3576064109802L1186.07269453125,330.2664647102356L1187.54452265625,314.5522174835205L1189.568286328125,327.84845209121704L1190.63536171875,348.57717847824097L1193.57901796875,371.73498010635376L1193.983770703125,347.6965937614441L1194.278136328125,312.93244218826294L1196.044330078125,276.8549499511719L1196.927426953125,336.3644585609436L1198.399255078125,282.8402433395386L1198.5096421875,312.1658716201782L1199.650308984375,400.9747347831726L1200.018266015625,335.14010286331177L1200.2758359375,348.751829624176L1200.79097578125,339.9725327491761L1200.93815859375,364.7149167060852L1203.035513671875,323.0586824417114L1203.771427734375,354.90589714050293L1203.88181484375,302.71175479888916L1204.654524609375,345.4297242164612L1207.818955078125,385.4185447692871L1209.437966015625,356.8964776992798L1211.1673640625,372.4754152297974L1211.24095546875,362.24366521835327L1212.41841796875,291.59935092926025L1213.080740625,337.3452982902527L1213.927041796875,386.2366256713867L1218.121751953125,324.81418228149414L1223.493924609375,330.3678951263428L1224.450612890625,351.0715923309326L1224.744978515625,324.36711406707764L1226.069623828125,338.82886505126953L1228.0933875,383.2105145454407L1230.37472109375,346.57228565216064L1230.853065234375,377.24382019042974L1231.1842265625,290.7366738319397L1234.238269921875,384.0128312110901L1235.3053453125,336.60431003570557L1236.740377734375,384.4355616569519L1239.1320984375,376.5481886863709L1247.043174609375,353.0192360877991L1249.95003515625,345.6814680099488L1250.9067234375,312.7995524406433L1251.71622890625,380.3329882621765L1252.415347265625,287.35227203369146L1253.151261328125,329.84649991989136L1253.33523984375,318.8468656539917L1253.92397109375,331.405638217926L1254.36551953125,315.928822517395L1254.95425078125,311.85224628448486L1255.947734765625,348.09222078323364L1258.449842578125,355.62074995040894L1259.700896484375,287.7777681350708L1260.25283203125,356.6272411346436L1260.657584765625,330.2625236511231L1260.731176171875,395.48373317718506L1261.025541796875,388.9133653640747L1261.2095203125,334.39268445968634L1262.423778515625,284.90425205230713L1264.52113359375,335.80213165283203L1266.029757421875,392.417727470398" style="fill: none;" fill="none"></path></g></g></g></g></g></g><g transform="translate(41, 377)" clip-path="url(#clip_1)"><clipPath id="clip_1"><rect width="1471" height="23"></rect></clipPath><g><g><line x1="0" y1="0" x2="0" y2="5" style="visibility: inherit;" fill="rgb(0, 0, 0)" stroke="rgb(204, 204, 204)" stroke-width="1px"></line><line x1="183.978515625" y1="0" x2="183.978515625" y2="5" style="visibility: inherit;" fill="rgb(0, 0, 0)" stroke="rgb(204, 204, 204)" stroke-width="1px"></line><line x1="367.95703125" y1="0" x2="367.95703125" y2="5" style="visibility: inherit;" fill="rgb(0, 0, 0)" stroke="rgb(204, 204, 204)" stroke-width="1px"></line><line x1="551.935546875" y1="0" x2="551.935546875" y2="5" style="visibility: inherit;" fill="rgb(0, 0, 0)" stroke="rgb(204, 204, 204)" stroke-width="1px"></line><line x1="735.9140625" y1="0" x2="735.9140625" y2="5" style="visibility: inherit;" fill="rgb(0, 0, 0)" stroke="rgb(204, 204, 204)" stroke-width="1px"></line><line x1="919.892578125" y1="0" x2="919.892578125" y2="5" style="visibility: inherit;" fill="rgb(0, 0, 0)" stroke="rgb(204, 204, 204)" stroke-width="1px"></line><line x1="1103.87109375" y1="0" x2="1103.87109375" y2="5" style="visibility: inherit;" fill="rgb(0, 0, 0)" stroke="rgb(204, 204, 204)" stroke-width="1px"></line><line x1="1287.849609375" y1="0" x2="1287.849609375" y2="5" style="visibility: inherit;" fill="rgb(0, 0, 0)" stroke="rgb(204, 204, 204)" stroke-width="1px"></line><line x1="1471.828125" y1="0" x2="1471.828125" y2="5" style="visibility: inherit;" fill="rgb(0, 0, 0)" stroke="rgb(204, 204, 204)" stroke-width="1px"></line></g><g transform="translate(0, 8)"><text x="0" y="0" dx="0em" dy="0.95em" style="text-anchor: middle; visibility: hidden; font-family: Roboto, sans-serif; font-size: 12px; font-weight: 200;" fill="rgb(33, 33, 33)" stroke="none" stroke-width="1px">-5k</text><text x="183.978515625" y="0" dx="0em" dy="0.95em" style="text-anchor: middle; visibility: inherit; font-family: Roboto, sans-serif; font-size: 12px; font-weight: 200;" fill="rgb(33, 33, 33)" stroke="none" stroke-width="1px">0</text><text x="367.95703125" y="0" dx="0em" dy="0.95em" style="text-anchor: middle; visibility: inherit; font-family: Roboto, sans-serif; font-size: 12px; font-weight: 200;" fill="rgb(33, 33, 33)" stroke="none" stroke-width="1px">5k</text><text x="551.935546875" y="0" dx="0em" dy="0.95em" style="text-anchor: middle; visibility: inherit; font-family: Roboto, sans-serif; font-size: 12px; font-weight: 200;" fill="rgb(33, 33, 33)" stroke="none" stroke-width="1px">10k</text><text x="735.9140625" y="0" dx="0em" dy="0.95em" style="text-anchor: middle; visibility: inherit; font-family: Roboto, sans-serif; font-size: 12px; font-weight: 200;" fill="rgb(33, 33, 33)" stroke="none" stroke-width="1px">15k</text><text x="919.892578125" y="0" dx="0em" dy="0.95em" style="text-anchor: middle; visibility: inherit; font-family: Roboto, sans-serif; font-size: 12px; font-weight: 200;" fill="rgb(33, 33, 33)" stroke="none" stroke-width="1px">20k</text><text x="1103.87109375" y="0" dx="0em" dy="0.95em" style="text-anchor: middle; visibility: inherit; font-family: Roboto, sans-serif; font-size: 12px; font-weight: 200;" fill="rgb(33, 33, 33)" stroke="none" stroke-width="1px">25k</text><text x="1287.849609375" y="0" dx="0em" dy="0.95em" style="text-anchor: middle; visibility: inherit; font-family: Roboto, sans-serif; font-size: 12px; font-weight: 200;" fill="rgb(33, 33, 33)" stroke="none" stroke-width="1px">30k</text><text x="1471.828125" y="0" dx="0em" dy="0.95em" style="text-anchor: middle; visibility: hidden; font-family: Roboto, sans-serif; font-size: 12px; font-weight: 200;" fill="rgb(33, 33, 33)" stroke="none" stroke-width="1px">35k</text></g><line x1="0" y1="0" x2="1471.828125" y2="0" fill="rgb(0, 0, 0)" stroke="rgb(204, 204, 204)" stroke-width="1px"></line></g></g></g></g></svg>